<?xml version="1.0"?>
<svg xmlns="http://www.w3.org/2000/svg" xmlns:xlink="http://www.w3.org/1999/xlink" viewBox="0 0 512 512" width="512" height="512"><linearGradient id="a" gradientUnits="userSpaceOnUse" x1="256" x2="256" y1="6.878" y2="496.01"><stop offset="0" stop-color="#00efd1"/><stop offset="1" stop-color="#00acea"/></linearGradient><linearGradient id="b" x1="250.783" x2="250.783" xlink:href="#a" y1="6.878" y2="496.01"/><path d="m425.021 88h-35.021v-27.626c0-11.267-9.53-20.374-20.8-20.374h-30.776a20.4 20.4 0 0 0 -20.424 20.374v27.626h-124v-27.626a20.4 20.4 0 0 0 -20.424-20.374h-30.776c-11.27 0-20.8 9.107-20.8 20.374v27.626h-35.021a41.018 41.018 0 0 0 -40.979 41.234v301.525a41.024 41.024 0 0 0 40.979 41.241h338.042a41.024 41.024 0 0 0 40.979-41.241v-301.525a41.018 41.018 0 0 0 -40.979-41.234zm-87.021-27.567a.433.433 0 0 1 .434-.433h31.132a.433.433 0 0 1 .434.433v61.134a.433.433 0 0 1 -.434.433h-31.132a.433.433 0 0 1 -.434-.433zm-196 0a.433.433 0 0 1 .434-.433h31.132a.433.433 0 0 1 .434.433v61.134a.433.433 0 0 1 -.434.433h-31.132a.433.433 0 0 1 -.434-.433zm304 370.326a21 21 0 0 1 -20.979 21.241h-338.042a21 21 0 0 1 -20.979-21.241v-221.759h380zm0-241.759h-380v-59.766a21 21 0 0 1 20.979-21.234h35.021v13.409a20.905 20.905 0 0 0 20.8 20.591h30.778a20.583 20.583 0 0 0 20.422-20.591v-13.409h124v13.409a20.583 20.583 0 0 0 20.424 20.591h30.776a20.905 20.905 0 0 0 20.8-20.591v-13.409h35.021a21 21 0 0 1 20.979 21.234z" fill="url(#a)"/><path d="m198.35 351.217-9.014 52.335a10 10 0 0 0 14.5 10.552l46.946-24.636 46.947 24.632a10 10 0 0 0 14.5-10.552l-9.013-52.335 37.835-36.65a10 10 0 0 0 -5.479-17.072l-52.367-7.835-23.455-47.528a10 10 0 0 0 -17.936 0l-23.454 47.532-52.367 7.84a10 10 0 0 0 -5.478 17.072zm28.142-42.551a10 10 0 0 0 7.488-5.464l16.8-34.048 16.8 34.048a10 10 0 0 0 7.488 5.464l37.532 5.614-27.095 26.246a10 10 0 0 0 -2.9 8.88l6.472 37.573-33.647-17.659a10 10 0 0 0 -9.293 0l-33.653 17.659 6.472-37.573a10 10 0 0 0 -2.9-8.88l-27.091-26.246z" fill="url(#b)"/></svg>
